# File created by Blade
# Date/Time:  Tue Jan 27 19:23:16 2015
# Frame Rate: 120.000 fps
#------------------------------------------------------
:FULLY-SPECIFIED
:DEGREES
2463
root 3.317366 32.320693 0.206277 -3.755823 1.409371 0.436544
Spine 1.144487 4.486142 -0.233194
Head 5.476613 -34.455845 -4.738508
LeftShoulder -5.796205 -5.930178 25.334969
LeftArm -3.063782 43.718371 -102.340591
LeftForeArm 2.785943 0.000000 14.960027
LeftHand 9.895237 -0.000000 -6.187163
LeftHandThumb1 -26.253704 0.000000 33.147579
RightShoulder -14.476353 -2.481088 -37.160623
RightArm 14.488461 79.068732 55.526938
RightForeArm 17.599164 -0.000000 114.412930
RightHand 29.122303 -0.000000 -16.099145
RightHandThumb1 -24.326973 -0.000000 -32.862282
LeftUpLeg 9.756689 0.796064 0.746227
LeftLeg 2.417180 -0.000000 -0.000000
LeftFoot -18.016165 13.300318 -23.963807
LeftToeBase 16.737367 -0.000000 -0.000000
RightUpLeg 9.136078 -8.938289 2.163507
RightLeg 0.296144 -0.000000 -0.000000
RightFoot -12.490777 -14.094204 13.521184
RightToeBase 11.150904 -0.000000 -0.000000
2464
root 3.317973 32.321092 0.208163 -3.739387 1.424348 0.431391
Spine 1.145733 4.470058 -0.253351
Head 5.418209 -34.501548 -4.645399
LeftShoulder -5.805831 -5.937703 25.357376
LeftArm -3.071664 43.699324 -102.310813
LeftForeArm 2.749684 -0.000000 15.010329
LeftHand 9.927502 -0.000000 -6.206930
LeftHandThumb1 -26.253704 0.000000 33.147579
RightShoulder -14.505838 -2.604973 -37.211737
RightArm 13.514151 78.850330 54.408398
RightForeArm 17.775564 -0.000000 111.486842
RightHand 29.299137 -0.000000 -16.269351
RightHandThumb1 -24.326973 -0.000000 -32.862282
LeftUpLeg 9.742393 0.784599 0.748432
LeftLeg 2.416390 -0.000000 -0.000000
LeftFoot -17.993397 13.312379 -23.910687
LeftToeBase 16.595141 -0.000000 -0.000000
RightUpLeg 9.150636 -8.809892 2.189459
RightLeg 0.240375 -0.000000 -0.000000
RightFoot -12.488452 -14.218453 13.570729
RightToeBase 11.115584 -0.000000 -0.000000
2465
root 3.319459 32.321197 0.211783 -3.725510 1.447549 0.427239
Spine 1.144074 4.439537 -0.276019
Head 5.368200 -34.562025 -4.544034
LeftShoulder -5.825704 -5.927475 25.380308
LeftArm -3.073041 43.672579 -102.277104
LeftForeArm 2.781497 0.000000 15.071855
LeftHand 9.917522 -0.000000 -6.289290
LeftHandThumb1 -26.253704 0.000000 33.147579
RightShoulder -14.523306 -2.713314 -37.305424
RightArm 12.640862 78.629774 53.387515
RightForeArm 17.765794 -0.000000 108.431607
RightHand 29.187506 0.000000 -16.306270
RightHandThumb1 -24.326973 -0.000000 -32.862282
LeftUpLeg 9.729806 0.772820 0.751274
LeftLeg 2.417685 -0.000000 -0.000000
LeftFoot -18.002628 13.289167 -23.937402
LeftToeBase 16.658916 -0.000000 -0.000000
RightUpLeg 9.155077 -8.792335 2.196501
RightLeg 0.220635 -0.000000 -0.000000
RightFoot -12.501242 -14.246302 13.606274
RightToeBase 11.156716 -0.000000 -0.000000
2466
root 3.325526 32.321871 0.216989 -3.723612 1.469004 0.442087
Spine 1.152700 4.428943 -0.305256
Head 5.340797 -34.638427 -4.470968
LeftShoulder -5.816135 -5.959176 25.390731
LeftArm -3.128613 43.645076 -102.283079
LeftForeArm 2.820280 -0.000000 15.128264
LeftHand 9.925422 -0.000000 -6.340121
LeftHandThumb1 -26.253704 0.000000 33.147579
RightShoulder -14.564194 -2.872725 -37.410873
RightArm 12.212167 78.502297 52.798166
RightForeArm 17.820358 -0.000000 105.317108
RightHand 28.822033 -0.000000 -15.569495
RightHandThumb1 -24.326973 -0.000000 -32.862282
LeftUpLeg 9.740018 0.750883 0.721642
LeftLeg 2.402794 -0.000000 -0.000000
LeftFoot -17.969161 13.320110 -23.894309
LeftToeBase 16.594742 -0.000000 -0.000000
RightUpLeg 9.139215 -8.983536 2.149649
RightLeg 0.275356 -0.000000 -0.000000
RightFoot -12.490186 -14.140175 13.508200
RightToeBase 11.125801 -0.000000 -0.000000
